<svg height="512" viewBox="0 0 512 512" width="512" xmlns="http://www.w3.org/2000/svg"><g id="Flat"><path d="m464 152h-416c-13.255 0-24-13.255-24 0v272a24 24 0 0 0 24 24h416a24 24 0 0 0 24-24v-272c0-13.255-10.745 0-24 0z" fill="#3ba5d3"/><rect fill="#4db6e4" height="296" rx="24" width="464" x="24" y="120"/><path d="m248 96h16v48h-16z" fill="#dfdfdd"/><path d="m56 96h16v48h-16z" fill="#dfdfdd"/><path d="m448 176h-384.16a8 8 0 0 0 -8 8v192a8 8 0 0 0 8 8h384.16a8 8 0 0 0 8-8v-192a8 8 0 0 0 -8-8zm-8 48h-48v-32h48zm-192 64v32h-48v-32zm-48-16v-32h48v32zm64 16h48v32h-48zm0-16v-32h48v32zm64-32h48v32h-48zm0-16v-32h48v32zm-16 0h-48v-32h48zm-64 0h-48v-32h48zm-64 0h-48v-32h48zm0 16v32h-48v-32zm-64 32h-48.16v-32h48.16zm0 16v32h-48.16v-32zm16 0h48v32h-48zm48 48v32h-48v-32zm16 0h48v32h-48zm64 0h48v32h-48zm64 0h48v32h-48zm0-16v-32h48v32zm64-32h48v32h-48zm0-16v-32h48v32zm-272-80v32h-48.16v-32zm-48.16 144h48.16v32h-48.16zm320.16 32v-32h48v32z" fill="#2f9ccb"/><path d="m196.8 190.4-9.6-12.8-27.2 20.4-27.2-20.4-9.6 12.8 23.466 17.6-23.466 17.6 9.6 12.8 27.2-20.4 27.2 20.4 9.6-12.8-23.466-17.6z" fill="#d65246"/><path d="m389.73 273.216-23.941-17.557 23.011-17.259-9.6-12.8-26.895 20.171-27.575-20.222-9.46 12.902 23.66 17.351-23.73 17.798 9.6 12.8 27.613-20.71 27.857 20.428z" fill="#ffb431"/><path d="m260.8 334.4-9.6-12.8-27.2 20.4-27.2-20.4-9.6 12.8 23.466 17.6-23.466 17.6 9.6 12.8 27.2-20.4 27.2 20.4 9.6-12.8-23.466-17.6z" fill="#74a550"/><path d="m200 152h-24l-16 40-16-40h-24a24 24 0 0 1 -24-24v-80a24 24 0 0 1 24-24h80a24 24 0 0 1 24 24v80a24 24 0 0 1 -24 24z" fill="#d65246"/><path d="m424 200h-56l-16 40-16-40h-24a24 24 0 0 1 -24-24v-80a24 24 0 0 1 24-24h112a24 24 0 0 1 24 24v80a24 24 0 0 1 -24 24z" fill="#ffb431"/><path d="m152 376h56l16-24 16 24h24a24 24 0 0 1 24 24v64a24 24 0 0 1 -24 24h-112a24 24 0 0 1 -24-24v-64a24 24 0 0 1 24-24z" fill="#7eb357"/><g fill="#c7483c"><path d="m120 48h80v16h-80z"/><path d="m120 112h80v16h-80z"/><path d="m120 80h48v16h-48z"/><path d="m184 80h16v16h-16z"/></g><path d="m312 96h112v16h-112z" fill="#f9a40f"/><path d="m312 160h112v16h-112z" fill="#f9a40f"/><path d="m312 128h32v16h-32z" fill="#f9a40f"/><path d="m360 128h64v16h-64z" fill="#f9a40f"/><path d="m152 440h112v16h-112z" fill="#74a550"/><path d="m152 408h16v16h-16z" fill="#74a550"/><path d="m184 408h80v16h-80z" fill="#74a550"/></g></svg>